<svg width="32" height="32" viewBox="0 0 32 32" fill="none" xmlns="http://www.w3.org/2000/svg">
  <!-- Red disc -->
  <circle cx="16" cy="16" r="16" fill="#F40009"/>
  <!-- Radial highlight -->
  <circle cx="16" cy="16" r="16" fill="url(#h)"/>
  <!-- Contour ribbon — main wave -->
  <path d="M1.5 19.5 Q7 11.5 12.5 14.5 Q18 17.5 23 11 Q26 7.5 30.5 9.5" stroke="white" stroke-width="3.2" stroke-linecap="round" fill="none" opacity="0.95"/>
  <!-- Contour ribbon — shadow wave -->
  <path d="M1.5 23 Q7 15 12.5 18 Q18 21 23 14.5 Q26 11 30.5 13" stroke="white" stroke-width="1.8" stroke-linecap="round" fill="none" opacity="0.4"/>
  <!-- Bottle silhouette -->
  <path d="M13.5 6.5 L13.5 7.5 C12.5 8 11.5 9 11.5 10.5 L11.5 22 C11.5 24 13 25.5 15 26 L15 27 L17 27 L17 26 C19 25.5 20.5 24 20.5 22 L20.5 10.5 C20.5 9 19.5 8 18.5 7.5 L18.5 6.5 Z" fill="white" opacity="0.2"/>
  <rect x="14" y="5" width="4" height="2" rx="0.6" fill="white" opacity="0.25"/>
  <defs>
    <radialGradient id="h" cx="35%" cy="28%" r="55%">
      <stop offset="0%" stop-color="white" stop-opacity="0.15"/>
      <stop offset="100%" stop-color="white" stop-opacity="0"/>
    </radialGradient>
  </defs>
</svg>
